<?xml version="1.0" encoding="UTF-8"?>
<svg version="1.1" xmlns="http://www.w3.org/2000/svg" width="1024" height="1024">
<path d="M0 0 C0.70962276 -0.00175304 1.41924552 -0.00350607 2.150372 -0.00531223 C4.52232808 -0.00995495 6.8942224 -0.00751119 9.26618099 -0.00507832 C10.98641174 -0.00694717 12.70664206 -0.00924817 14.42687172 -0.01194364 C19.14989038 -0.01805906 23.87289133 -0.01792834 28.59591305 -0.01674926 C33.69154103 -0.01654519 38.78716333 -0.02206475 43.88278866 -0.02680683 C53.86551456 -0.03511301 63.84823455 -0.03786168 73.83096362 -0.03841921 C81.94757357 -0.03889447 90.06418157 -0.04094975 98.1807909 -0.04411983 C121.19960244 -0.05292705 144.21840932 -0.05753922 167.23722256 -0.05678936 C168.47815076 -0.0567494 169.71907896 -0.05670945 170.99761105 -0.05666828 C172.24005716 -0.0566274 173.48250328 -0.05658652 174.76259928 -0.0565444 C194.88946777 -0.05613812 215.01631754 -0.06570296 235.14318062 -0.07980665 C255.81591802 -0.09417835 276.48864629 -0.10107636 297.16138881 -0.10021287 C308.76478423 -0.09988113 320.36816003 -0.10261805 331.97155094 -0.11339092 C341.85312816 -0.12250645 351.73467687 -0.12466259 361.61625648 -0.1178815 C366.65489747 -0.11462136 371.6934838 -0.11454129 376.73211956 -0.12323475 C381.35187863 -0.13112324 385.97153991 -0.1296444 390.59129667 -0.12095062 C392.25552514 -0.11942077 393.91976099 -0.1212122 395.58398075 -0.12681069 C416.51864312 -0.19252643 433.9762917 2.42681026 449.90361691 17.22238445 C459.4650637 27.23741032 464.59387219 40.34180344 465.02471066 54.12863445 C464.5325153 69.8583776 457.41095225 81.1852961 448.04228878 93.30734539 C445.27990481 96.9201407 442.5946972 100.59045997 439.89971066 104.25363445 C439.30094112 105.06638836 438.70217159 105.87914227 438.08525753 106.71652508 C434.07660564 112.16571925 430.10297554 117.63916432 426.14971066 123.12863445 C416.964763 135.88091893 407.63090622 148.52155651 398.18193722 161.07931805 C393.77086275 166.94863499 389.42091952 172.8620289 385.07378292 178.77878094 C380.7824892 184.61153321 376.44342027 190.40676042 372.08721066 196.19113445 C366.68473814 203.36835586 361.38120612 210.60926289 356.13945675 217.90451336 C352.51087019 222.95088459 348.8162837 227.94103039 345.07158566 232.90207195 C340.1508717 239.43647831 335.33160624 246.04728435 330.48467159 252.63644695 C328.69056059 255.07315333 326.89336887 257.50755219 325.09502316 259.94113445 C318.86206709 268.37905178 312.67257884 276.84530671 306.54399776 285.35934734 C302.03634497 291.61357062 297.46590429 297.82002336 292.88237667 304.01877117 C288.90811908 309.40047496 284.98708645 314.81787291 281.08721066 320.25363445 C276.09059444 327.21507391 270.94674982 334.05092312 265.69829464 340.82443523 C265.18210567 341.49200848 264.66591671 342.15958172 264.13408566 342.84738445 C263.67743526 343.43455242 263.22078487 344.02172039 262.75029659 344.62668133 C261.56822006 346.15166969 261.56822006 346.15166969 260.64971066 348.12863445 C261.63461829 348.13102281 262.61952593 348.13341116 263.63427925 348.13587189 C287.58683147 348.19463711 311.53928286 348.27050146 335.49172401 348.36434937 C347.07489456 348.40933645 358.65803416 348.4487444 370.24126339 348.47507 C380.3358809 348.49802647 390.43040072 348.53139817 400.52494079 348.57733601 C405.87112307 348.60129991 411.2172084 348.62000794 416.56344318 348.62624836 C421.59410713 348.63228487 426.62452292 348.65223279 431.6550951 348.68290997 C433.50258062 348.69171321 435.35009853 348.69540806 437.19760418 348.69364262 C439.7184828 348.6919941 442.23860112 348.70865263 444.75937557 348.72990704 C445.49187344 348.72505946 446.2243713 348.72021188 446.97906607 348.71521741 C451.37811403 348.77650467 454.13308099 349.46165334 457.64971066 352.12863445 C460.63563563 355.62937408 460.99824681 358.6369155 460.92876339 363.1632719 C460.28392234 370.01569539 458.40146081 376.70887916 456.77471066 383.3825407 C456.36705199 385.08643666 455.96024998 386.79053778 455.55425167 388.49483013 C454.48135377 392.98755098 453.39606484 397.47719117 452.30834103 401.96634197 C451.23302621 406.41498246 450.17068076 410.86671564 449.10674191 415.31808758 C447.24081584 423.11512261 445.35677823 430.90760893 443.45821285 438.69675922 C442.27425923 443.55454154 441.0992776 448.41434345 439.932868 453.27636719 C439.22109082 456.2346647 438.501074 459.19090961 437.77864742 462.14662266 C437.44839905 463.50438609 437.12135542 464.86293393 436.7978735 466.22232533 C433.87202566 478.49961863 430.72421066 487.48345131 419.63408566 494.3825407 C411.89687883 498.51006639 404.2080186 499.43287848 395.57549191 499.54269695 C394.08302189 499.57174618 394.08302189 499.57174618 392.56040096 499.60138226 C390.42968452 499.64089359 388.29888062 499.67590771 386.1680212 499.70675945 C383.12712016 499.75122316 380.08679522 499.80946173 377.04619503 499.87082195 C361.98995342 500.14617231 346.93421896 500.14996445 331.87602901 500.14279461 C329.56642946 500.14217326 327.2568299 500.14157516 324.94723034 500.14099789 C317.18138932 500.1385403 309.41555023 500.13381717 301.64971066 500.12863445 C300.96339008 500.12818939 300.2770695 500.12774433 299.56995133 500.12728578 C257.67043099 500.10009951 215.77099518 500.03968431 173.87156071 499.9507135 C169.15779978 499.94070835 164.44403853 499.93086171 159.73027706 499.92111492 C158.32399865 499.91820286 158.32399865 499.91820286 156.88931057 499.91523197 C141.59466683 499.88398034 126.30003838 499.8671527 111.00536862 499.85544023 C95.18000261 499.84301061 79.35471451 499.81550846 63.52939773 499.77402139 C53.82707873 499.74904618 44.12488886 499.73550529 34.42253724 499.73720488 C27.79491428 499.73723473 21.16742374 499.72252766 14.53985247 499.69647017 C10.72979382 499.68191229 6.92000675 499.6735464 3.10992527 499.68283176 C-20.27046082 499.7332043 -41.16891281 499.46493721 -59.06513309 482.4762907 C-70.28391941 470.95066578 -76.15938908 457.27879679 -76.35028934 441.12863445 C-74.95877751 418.50368274 -62.35386764 403.28196612 -49.11591434 386.05050945 C-45.77082539 381.69175718 -42.51598319 377.28391806 -39.30732059 372.82394695 C-35.29176055 367.29353492 -31.15667333 361.85126176 -27.04804325 356.38986492 C-25.27330345 354.0260973 -23.50456724 351.6579319 -21.73700809 349.2887907 C-15.10139628 340.40255427 -8.3956752 331.58336515 -1.55439091 322.85446453 C3.26888236 316.67575083 7.9057575 310.3707091 12.5273962 304.04049969 C16.71962473 298.32457665 21.0751458 292.76846223 25.53740597 287.26193523 C28.97564644 283.00852507 32.21452552 278.64875249 35.39580441 274.19894695 C38.38023815 270.13349648 41.48179427 266.16455998 44.58721066 262.19113445 C49.22676025 256.25397513 53.81153782 250.28785525 58.31377316 244.24582195 C64.94685926 235.3943124 71.71165213 226.64072304 78.46221066 217.87863445 C82.87839564 212.14407777 87.26550168 206.3876648 91.64971066 200.62863445 C96.80273629 193.85969821 101.96818025 187.10114113 107.16142941 180.36300945 C110.67342163 175.8030261 114.16519994 171.22754377 117.65825558 166.65304852 C121.05225961 162.21042403 124.45711361 157.77624821 127.86650753 153.34543133 C128.32781063 152.74583599 128.78911373 152.14624065 129.26439571 151.52847576 C130.39278554 150.06182469 131.52124136 148.59522439 132.64971066 147.12863445 C131.65964929 147.1262461 130.66958792 147.12385775 129.64952469 147.12139702 C105.57179482 147.06263217 81.49416525 146.98676805 57.41654587 146.89291954 C45.77284111 146.84793218 34.12916715 146.80852429 22.48540401 146.78219891 C12.33804909 146.75924265 2.19079136 146.7258712 -7.95648652 146.67993289 C-13.3306144 146.65596869 -18.70464583 146.63726086 -24.07882595 146.63102055 C-29.13575414 146.62498417 -34.19243545 146.60503674 -39.24927235 146.57435894 C-41.1064333 146.56555548 -42.96362648 146.56186089 -44.82080746 146.56362629 C-47.35482181 146.56527472 -49.88807968 146.54861694 -52.42199039 146.52736187 C-53.15837921 146.53220945 -53.89476802 146.53705702 -54.65347165 146.54205149 C-60.41592189 146.46217931 -63.44973002 144.8237279 -67.66278934 141.06613445 C-72.28580966 133.01865465 -68.27291139 122.35385399 -66.16669559 113.98019695 C-65.83128556 112.61176735 -65.49689217 111.24308822 -65.16344547 109.87417889 C-64.27614194 106.24406323 -63.37478101 102.61758581 -62.47002506 98.991786 C-61.53834223 95.24965803 -60.6183251 91.50466329 -59.69696903 87.75998211 C-58.24791149 81.87659955 -56.79111718 75.99518495 -55.32929325 70.11496258 C-53.66875521 63.43291662 -52.03916162 56.7437749 -50.42450809 50.05050945 C-49.83012895 47.60462486 -49.2344199 45.1590716 -48.63761234 42.7137785 C-48.28411527 41.25975653 -47.9333898 39.80505747 -47.58567142 38.34964275 C-44.63646747 26.0367117 -40.88839525 15.22944417 -30.14716434 7.5544157 C-20.63533567 2.01693502 -10.96354634 0.00613161 0 0 Z M161.13017941 180.4606657 C157.09536348 185.05361178 156.52775077 188.61441452 156.50926876 194.52908611 C156.50355862 195.62527767 156.49784847 196.72146923 156.49196529 197.85087872 C156.49084743 199.048876 156.48972958 200.24687328 156.48857784 201.48117352 C156.48361294 202.74662502 156.47864803 204.01207653 156.47353268 205.31587505 C156.46043187 208.78507245 156.4539681 212.25425052 156.44952202 215.72346878 C156.44658717 217.89314119 156.44248155 220.06280837 156.43801785 222.23247814 C156.42434819 229.02734993 156.41467929 235.82220969 156.41081595 242.61709428 C156.40633824 250.44860037 156.38880152 258.27993167 156.35981536 266.11138463 C156.33816338 272.17269026 156.32810978 278.23394684 156.32677484 284.29529071 C156.3257292 287.91172529 156.31987319 291.52799544 156.30195522 295.14438915 C156.28233648 299.18253885 156.28677747 303.22032509 156.29326534 307.25851727 C156.28405056 308.44841763 156.27483578 309.63831799 156.26534176 310.86427593 C156.30050815 317.85739673 156.4663325 324.53354919 161.34111691 330.0387907 C166.95375005 333.49542281 171.29029098 333.63578695 177.64971066 332.12863445 C180.95433878 330.64490283 183.85677947 328.73949323 186.83721066 326.69113445 C187.65455685 326.15198406 188.47190304 325.61283367 189.3140173 325.05734539 C191.77117441 323.43152125 194.21063604 321.78141516 196.64971066 320.12863445 C198.02850904 319.21374559 199.40862722 318.30084121 200.79033566 317.3903532 C203.7412634 315.44164126 206.67915747 313.47444313 209.61162472 311.49801922 C213.19777824 309.08849178 216.79564672 306.69651752 220.39116573 304.30099773 C223.67447081 302.11212768 226.95531734 299.91961514 230.23564816 297.7262907 C232.49837134 296.21412603 234.7614228 294.70245383 237.02471066 293.19113445 C237.91278912 292.59811031 237.91278912 292.59811031 238.81880856 291.99310589 C245.29153092 287.67304837 251.76983784 283.36658844 258.33721066 279.19113445 C260.44179575 277.83761819 262.5459472 276.48342744 264.64971066 275.12863445 C265.32630733 274.70034344 266.00290401 274.27205242 266.70000362 273.83078289 C268.90427717 272.42792968 271.09018068 270.99949444 273.27471066 269.56613445 C273.95106564 269.14275799 274.62742062 268.71938152 275.3242712 268.28317547 C280.159242 265.06292443 282.78441588 261.66215114 284.64971066 256.12863445 C285.06833969 253.62850405 285.06833969 253.62850405 284.64971066 251.44113445 C284.56721066 250.73601727 284.48471066 250.03090008 284.39971066 249.3044157 C281.94232773 242.17544544 275.33930572 239.21878423 269.21221066 235.62863445 C267.13229188 234.38727042 265.05287582 233.14506375 262.97392941 231.90207195 C261.91995968 231.27526531 260.86598995 230.64845867 259.78008175 230.00265789 C254.99578012 227.13849479 250.25940448 224.1988377 245.52471066 221.25363445 C243.77873408 220.17011228 242.03264464 219.08677195 240.28642941 218.00363445 C239.4825378 217.50476727 238.6786462 217.00590008 237.85039425 216.4919157 C235.01790948 214.73724575 232.17797161 212.99486706 229.33721066 211.25363445 C224.32727958 208.17656711 219.34273073 205.06034201 214.36138058 201.9372282 C210.19761921 199.32890818 206.02873165 196.72886085 201.85869503 194.13058758 C199.70719405 192.78835477 197.55747066 191.44326867 195.40947628 190.09543133 C192.2871214 188.13850253 189.15694419 186.19470141 186.02471066 184.25363445 C185.07161007 183.6527702 184.11850948 183.05190594 183.13652706 182.43283367 C176.22628826 178.17626584 168.37165925 174.11273607 161.13017941 180.4606657 Z " fill="#FE3333" transform="translate(319.3502893447876,261.8713655471802)"/>
<path d="M0 0 C0.33 0.66 0.66 1.32 1 2 C0.57332031 2.58523438 0.14664062 3.17046875 -0.29296875 3.7734375 C-4.81019434 9.97647305 -9.30919411 16.19244495 -13.80078125 22.4140625 C-14.39910767 23.24268799 -14.99743408 24.07131348 -15.6138916 24.92504883 C-17.07601167 26.94997197 -18.53804591 28.97495702 -20 31 C-19.01509236 31.00238835 -18.03018473 31.00477671 -17.0154314 31.00723743 C6.93712081 31.06600265 30.8895722 31.141867 54.84201336 31.23571491 C66.42518391 31.28070199 78.0083235 31.32010995 89.59155273 31.34643555 C99.68617025 31.36939202 109.78069007 31.40276372 119.87523013 31.44870156 C125.22141241 31.47266546 130.56749774 31.49137349 135.91373253 31.49761391 C140.94439647 31.50365041 145.97481226 31.52359834 151.00538445 31.55427551 C152.85286996 31.56307876 154.70038788 31.5667736 156.54789352 31.56500816 C159.06877215 31.56335965 161.58889046 31.58001817 164.10966492 31.60127258 C165.20841172 31.59400122 165.20841172 31.59400122 166.32935542 31.58658296 C170.72840337 31.64787021 173.48337034 32.33301888 177 35 C179.98592497 38.50073963 180.34853615 41.50828104 180.27905273 46.03463745 C179.63421168 52.88706094 177.75175016 59.58024471 176.125 66.25390625 C175.71734133 67.95780221 175.31053933 69.66190333 174.90454102 71.36619568 C173.83164312 75.85891653 172.74635418 80.34855672 171.65863037 84.83770752 C170.58331555 89.28634801 169.5209701 93.73808119 168.45703125 98.18945312 C166.59110518 105.98648815 164.70706758 113.77897448 162.8085022 121.56812477 C161.62454858 126.42590708 160.44956695 131.285709 159.28315735 136.14773273 C158.57138017 139.10603025 157.85136335 142.06227516 157.12893677 145.0179882 C156.7986884 146.37575164 156.47164477 147.73429948 156.14816284 149.09369087 C153.22231501 161.37098418 150.07450001 170.35481686 138.984375 177.25390625 C131.24716818 181.38143194 123.55830794 182.30424403 114.92578125 182.4140625 C113.43331123 182.44311172 113.43331123 182.44311172 111.91069031 182.4727478 C109.77997386 182.51225914 107.64916997 182.54727325 105.51831055 182.578125 C102.4774095 182.62258871 99.43708456 182.68082728 96.39648438 182.7421875 C81.34024277 183.01753786 66.28450831 183.02133 51.22631836 183.01416016 C48.91671881 183.01353881 46.60711925 183.0129407 44.29751968 183.01236343 C36.53167866 183.00990585 28.76583957 183.00518272 21 183 C20.31367942 182.99955494 19.62735884 182.99910987 18.92024067 182.99865133 C-22.97927966 182.97146505 -64.87871547 182.91104985 -106.77814995 182.82207905 C-111.49191088 182.8120739 -116.20567212 182.80222726 -120.91943359 182.79248047 C-122.32571201 182.78956841 -122.32571201 182.78956841 -123.76040009 182.78659752 C-139.05504383 182.75534589 -154.34967228 182.73851825 -169.64434204 182.72680578 C-185.46970804 182.71437616 -201.29499615 182.68687401 -217.12031293 182.64538693 C-226.82263192 182.62041173 -236.5248218 182.60687083 -246.22717342 182.60857043 C-252.85479637 182.60860028 -259.48228692 182.59389321 -266.10985819 182.56783572 C-269.91991684 182.55327784 -273.72970391 182.54491195 -277.53978539 182.55419731 C-300.92017148 182.60456985 -321.81862347 182.33630276 -339.71484375 165.34765625 C-350.90572549 153.85069912 -356.86840868 140.12933606 -357 124 C-356.61233142 119.28097265 -356.1233665 114.60514571 -355 110 C-354.01 109.505 -354.01 109.505 -353 109 C-353.02094727 109.71953857 -353.04189453 110.43907715 -353.06347656 111.18041992 C-353.53544629 129.83965331 -353.35073031 143.46742168 -342 159 C-341.39414062 159.83402344 -340.78828125 160.66804687 -340.1640625 161.52734375 C-330.98753016 172.01244297 -317.52885069 177.35604958 -304 179 C-298.16180068 179.28086132 -292.33299581 179.27061937 -286.48922729 179.25396729 C-284.72073206 179.25627446 -282.95223779 179.25945271 -281.1837455 179.26342177 C-276.34607398 179.27174292 -271.50848173 179.26765672 -266.67080998 179.26144934 C-261.44514644 179.25691494 -256.21949631 179.26391346 -250.99383545 179.26940918 C-240.76600822 179.27829389 -230.53821037 179.27638538 -220.31038199 179.2705839 C-211.99788491 179.26606429 -203.68539606 179.2654558 -195.3728981 179.26763153 C-193.59724953 179.26809123 -193.59724953 179.26809123 -191.78572927 179.26856022 C-189.38084172 179.26919967 -186.97595418 179.2698481 -184.57106663 179.2705054 C-162.03086807 179.27620586 -139.49068579 179.26965498 -116.95048989 179.25890467 C-97.61233017 179.2499671 -78.27419445 179.25152345 -58.93603516 179.26074219 C-36.47252861 179.27144582 -14.00903632 179.27565901 8.45447242 179.26951766 C10.84982482 179.26888057 13.24517723 179.26825183 15.64052963 179.26763153 C17.40832151 179.2671687 17.40832151 179.2671687 19.21182636 179.26669653 C27.51481852 179.26497004 35.81780163 179.26788364 44.12079239 179.27259064 C54.23847426 179.27820039 64.3561251 179.2766809 74.47380342 179.26602915 C79.63539137 179.26077411 84.79692759 179.25871293 89.95851517 179.26532745 C94.68456354 179.27129225 99.41051226 179.26800297 104.1365516 179.25737235 C105.84498436 179.25514062 107.55342556 179.25626952 109.26185288 179.26112393 C122.36676369 179.29550093 135.59373196 179.05922027 145.703125 169.3671875 C151.2933192 162.12687574 152.70521118 152.35577916 154.5 143.625 C155.89759037 136.88049936 157.44136333 130.23304503 159.29492188 123.59863281 C160.33076929 119.78091818 161.17253782 115.92976047 162 112.0625 C163.09827187 107.02214201 164.22087841 101.99830667 165.5 97 C166.75101975 92.10411732 167.85722397 87.18558259 168.9375 82.25 C170.94490786 73.09397898 173.14143147 63.98920671 175.55053711 54.9296875 C177.07603679 49.09180919 178.61116178 43.06887958 175.6875 37.5 C172.10590354 34.3163587 167.86014088 34.84775627 163.35017395 34.84178162 C162.56356862 34.83684364 161.77696329 34.83190566 160.96652144 34.82681805 C158.32249107 34.81142163 155.67848502 34.80307662 153.03442383 34.79467773 C151.14237757 34.7851009 149.25033347 34.77509093 147.35829163 34.76467896 C142.21401896 34.73760279 137.06973709 34.7166079 131.92543244 34.69667697 C126.55221514 34.67483414 121.17902628 34.64743713 115.80583191 34.62062073 C105.62739837 34.57067079 95.44894905 34.52574049 85.27048463 34.48259836 C73.68415964 34.43324565 62.0978632 34.37832024 50.5115658 34.32291877 C26.67440382 34.20906339 2.83721447 34.1022321 -21 34 C-21.66 32.68 -22.32 31.36 -23 30 C-22.56171875 29.47535156 -22.1234375 28.95070313 -21.671875 28.41015625 C-16.49649264 22.08819528 -11.76972496 15.52247374 -7.12597656 8.80297852 C-6.63452148 8.09584717 -6.14306641 7.38871582 -5.63671875 6.66015625 C-4.98255981 5.71088257 -4.98255981 5.71088257 -4.31518555 4.74243164 C-2.99810078 2.99748381 -1.58156152 1.50579463 0 0 Z " fill="#F8181B" transform="translate(600,579)"/>
<path d="M0 0 C0.67378613 -0.00175304 1.34757226 -0.00350607 2.04177615 -0.00531223 C4.2917282 -0.00995136 6.54161503 -0.00751216 8.79156971 -0.00507832 C10.424057 -0.00694732 12.05654385 -0.00924838 13.68902999 -0.01194364 C18.16911887 -0.01805658 22.64918907 -0.01792865 27.12928116 -0.01674926 C31.96295689 -0.01654514 36.79662663 -0.02206499 41.63029957 -0.02680683 C51.09631582 -0.03511016 60.56232584 -0.03786149 70.02834543 -0.03841921 C77.71931664 -0.03889433 85.4102858 -0.04094887 93.10125637 -0.04411983 C114.89796144 -0.05292398 136.69466158 -0.05753935 158.49136844 -0.05678936 C159.66622297 -0.0567494 160.84107751 -0.05670945 162.0515337 -0.05666828 C163.22781878 -0.0566274 164.40410386 -0.05658652 165.61603395 -0.0565444 C184.69884796 -0.05613755 203.78164228 -0.06571753 222.8644506 -0.07980665 C242.45006785 -0.09415322 262.03567549 -0.10107785 281.62129813 -0.10021287 C292.6207486 -0.0998804 303.6201784 -0.10264951 314.61962414 -0.11339092 C323.9799691 -0.12247312 333.34028401 -0.12468987 342.70063146 -0.1178815 C347.47880042 -0.11460529 352.25691164 -0.1145992 357.03507519 -0.12323475 C361.40512282 -0.13105181 365.77506647 -0.12971786 370.14511142 -0.12095062 C371.72975471 -0.11940504 373.31440558 -0.12127121 374.89903995 -0.12681069 C377.04598007 -0.1338215 379.1925504 -0.12861639 381.33947754 -0.12025452 C383.13138182 -0.12058057 383.13138182 -0.12058057 384.95948619 -0.12091321 C387.86651345 0.1191808 389.5298469 0.60614604 391.98097706 2.12863445 C390.98097706 3.12863445 390.98097706 3.12863445 388.26960403 3.25234097 C387.04424113 3.25174658 385.81887824 3.25115219 384.55638313 3.25053978 C383.87394392 3.25158442 383.19150471 3.25262906 382.48838553 3.25370535 C380.17276639 3.25603513 377.85721501 3.25118683 375.54160023 3.24647808 C373.87604579 3.24674805 372.21049138 3.24747171 370.54493731 3.24861318 C366.90854101 3.25014132 363.27216421 3.2484841 359.63576984 3.24446583 C353.71982495 3.23796248 347.80389187 3.2382724 341.88794422 3.23953533 C334.41221428 3.24065738 326.93648803 3.24000772 319.46075847 3.23733453 C304.76050915 3.23221506 290.06029419 3.24054893 275.36005116 3.25395489 C273.04728518 3.25600166 270.73451921 3.25804399 268.42175323 3.26008195 C263.73824846 3.26423843 259.05474376 3.26845366 254.37123907 3.27268946 C242.31838236 3.28350005 230.26552512 3.29329996 218.21266651 3.30173016 C217.00271476 3.30258141 215.79276301 3.30343266 214.54614606 3.3043097 C194.96207865 3.31751477 175.378052 3.31252167 155.79398505 3.30165859 C135.69092362 3.2910212 115.58796361 3.30323522 95.48492545 3.33574086 C83.0850936 3.35500625 70.68553279 3.35604118 58.28570511 3.33358458 C49.77891124 3.31981813 41.27231458 3.32801217 32.76554791 3.35330918 C27.86046386 3.36722869 22.95587815 3.37152366 18.05081272 3.34948444 C13.5526496 3.32947936 9.05540406 3.33747534 4.55730113 3.36696056 C2.93731178 3.37276768 1.3172467 3.3686274 -0.30267825 3.35305931 C-11.2980832 3.25489145 -22.95639749 4.23003534 -31.28038949 12.32881898 C-31.85413853 12.92275808 -32.42788757 13.51669719 -33.01902294 14.12863445 C-33.67902294 14.12863445 -34.33902294 14.12863445 -35.01902294 14.12863445 C-36.85575413 17.72009989 -38.44103065 21.39444945 -40.01902294 25.10519695 C-41.01902294 27.12863445 -41.01902294 27.12863445 -43.01902294 29.12863445 C-42.86338615 20.56861109 -38.97353862 15.9697319 -32.97605419 10.14425945 C-23.61631853 2.16546839 -12.03245014 0.00709232 0 0 Z " fill="#FB2627" transform="translate(319.01902294158936,261.8713655471802)"/>
<path d="M0 0 C0.33 0.66 0.66 1.32 1 2 C-9.25710608 16.48757149 -19.79455019 30.76589745 -30.46704102 44.94970703 C-34.87835715 50.81935153 -39.22855011 56.7330664 -43.57592773 62.65014648 C-47.86722145 68.48289875 -52.20629038 74.27812597 -56.5625 80.0625 C-61.96497252 87.23972141 -67.26850454 94.48062844 -72.51025391 101.77587891 C-76.13884047 106.82225014 -79.83342696 111.81239593 -83.578125 116.7734375 C-88.49883896 123.30784385 -93.31810442 129.91864989 -98.16503906 136.5078125 C-99.95915007 138.94451888 -101.75634178 141.37891774 -103.5546875 143.8125 C-109.24313502 151.51328425 -114.90532655 159.23075457 -120.5 167 C-125.15402065 173.46232547 -129.84209787 179.89848079 -134.5625 186.3125 C-135.14644531 187.10720703 -135.73039063 187.90191406 -136.33203125 188.72070312 C-139.14975332 192.54240327 -141.99637696 196.32074537 -145 200 C-145.66 199.67 -146.32 199.34 -147 199 C-137.67841055 185.83379186 -128.15387537 172.81526956 -118.4375 159.9375 C-111.34308435 150.50887735 -104.50619812 140.88821779 -97.62890625 131.30078125 C-92.0856278 123.58376375 -86.4730022 115.95372819 -80.64453125 108.44921875 C-75.57776959 101.88364553 -70.71972452 95.158063 -65.81445312 88.47167969 C-62.88194262 84.47696274 -59.94067627 80.48870739 -57 76.5 C-53.4396081 71.66928987 -49.88025709 66.83782235 -46.32421875 62.00390625 C-39.92321231 53.30486158 -33.49803573 44.62689477 -27 36 C-24.97780619 33.31352076 -22.95700773 30.62599905 -20.9375 27.9375 C-20.42405029 27.25397461 -19.91060059 26.57044922 -19.3815918 25.86621094 C-16.44955853 21.95557924 -13.55052983 18.02413429 -10.6875 14.0625 C-7.23558431 9.28626445 -3.65322287 4.6236102 0 0 Z " fill="#FB1C1C" transform="translate(748,378)"/>
<path d="M0 0 C0.33 0.66 0.66 1.32 1 2 C0.57332031 2.58523438 0.14664063 3.17046875 -0.29296875 3.7734375 C-6.88837714 12.8302251 -13.44007813 21.91703126 -20 31 C42.04 31.33 104.08 31.66 168 32 C164.37802641 34.41464906 161.76024071 34.27458653 157.57795715 34.24050903 C156.81585314 34.24221788 156.05374913 34.24392673 155.26855105 34.24568737 C152.70734096 34.24898936 150.14639115 34.23796698 147.58520508 34.22705078 C145.75227362 34.22648682 143.91934171 34.22680293 142.08641052 34.22793579 C137.10323665 34.22851089 132.12015856 34.2167311 127.137007 34.20278788 C121.93197503 34.19030676 116.72694099 34.18911209 111.52189636 34.18673706 C101.66216974 34.18051458 91.80248733 34.16409338 81.9427802 34.14403808 C70.71923023 34.12170296 59.49567818 34.11069166 48.27211154 34.10064721 C25.18138315 34.07972782 2.09069405 34.04453693 -21 34 C-21.66 32.68 -22.32 31.36 -23 30 C-22.56171875 29.47535156 -22.1234375 28.95070313 -21.671875 28.41015625 C-16.49649264 22.08819528 -11.76972496 15.52247374 -7.12597656 8.80297852 C-6.63452148 8.09584717 -6.14306641 7.38871582 -5.63671875 6.66015625 C-5.20061279 6.02730713 -4.76450684 5.39445801 -4.31518555 4.74243164 C-2.99810078 2.99748381 -1.58156152 1.50579463 0 0 Z " fill="#FE1213" transform="translate(600,579)"/>
<path d="M0 0 C0.33 0 0.66 0 1 0 C0.835 1.299375 0.67 2.59875 0.5 3.9375 C-0.79676053 12.82285099 -0.79676053 12.82285099 1.875 21 C5.58864587 24.49519611 8.74082744 24.15186584 13.60549927 24.15821838 C14.39941728 24.16315636 15.19333528 24.16809434 16.01131141 24.17318195 C18.68608693 24.18860666 21.36083836 24.19693099 24.03564453 24.20532227 C25.94724746 24.21489689 27.85884824 24.22490672 29.77044678 24.23532104 C34.97262815 24.26242127 40.17481864 24.28340308 45.3770318 24.30332303 C50.80897857 24.32515108 56.24089706 24.3525553 61.67282104 24.37937927 C71.96461909 24.42934927 82.25643279 24.47427209 92.54826152 24.51740164 C104.26273488 24.56673726 115.97717989 24.62166899 127.69162583 24.67708123 C151.79439078 24.79096738 175.89718291 24.89779193 200 25 C199.67 25.66 199.34 26.32 199 27 C173.92229955 27.0700455 148.84461374 27.12296632 123.76683521 27.15543652 C112.12308802 27.17091294 100.47940157 27.19201732 88.83569336 27.22631836 C78.68839611 27.25619693 68.54114284 27.27556936 58.39380282 27.28226548 C53.0196343 27.28618034 47.64559163 27.29539701 42.27146339 27.31719017 C37.21460098 27.33753089 32.15791644 27.34383866 27.101017 27.33932304 C25.2438288 27.34014932 23.38663474 27.3461293 21.52948189 27.35761642 C18.99553492 27.3725228 16.4622612 27.3689605 13.92829895 27.36076355 C13.19191014 27.36950207 12.45552132 27.3782406 11.6968177 27.38724393 C5.9245631 27.33670749 2.90540367 25.69941409 -1.3125 21.9375 C-4.18665943 16.93433358 -3.73381357 11.84300345 -2.31640625 6.3515625 C-1.60782672 4.20209157 -0.85085259 2.09674388 0 0 Z " fill="#FD191B" transform="translate(253,381)"/>
<path d="M0 0 C4.38017074 0.93813612 7.88118928 3.09509756 11.6875 5.375 C12.42774414 5.81545654 13.16798828 6.25591309 13.93066406 6.7097168 C19.41926725 9.99975361 24.85575745 13.37007096 30.25 16.8125 C30.95213623 17.25577637 31.65427246 17.69905273 32.37768555 18.15576172 C36.87196309 21.0610982 41.54293042 24.08586085 44 29 C45.18697924 39.74291333 45.18697924 39.74291333 42.73046875 44.4140625 C41.24204328 46.17409846 39.87711255 47.66267888 38 49 C37.34 49 36.68 49 36 49 C36 49.66 36 50.32 36 51 C33.92377525 52.48821365 31.85792194 53.84925477 29.6875 55.1875 C29.04304932 55.59331299 28.39859863 55.99912598 27.73461914 56.41723633 C25.8268852 57.61770127 23.91406836 58.80966929 22 60 C10.35988176 67.30090257 -1.02222184 74.98965162 -12.43896484 82.6328125 C-21.25151859 88.53131389 -30.08967102 94.38189589 -39.00634766 100.12207031 C-43.24240957 102.85159972 -47.4440756 105.6242163 -51.625 108.4375 C-53.4164581 109.62531461 -55.2080935 110.81286194 -57 112 C-57.9590625 112.66515625 -57.9590625 112.66515625 -58.9375 113.34375 C-63.54255759 116.32850955 -68.56091766 117.29830433 -74 117 C-74.66 116.34 -75.32 115.68 -76 115 C-75.03126953 114.99226562 -75.03126953 114.99226562 -74.04296875 114.984375 C-62.5937831 114.04463336 -54.23994845 107.28393978 -45 101 C-43.62403873 100.08606339 -42.24653149 99.17444824 -40.8671875 98.265625 C-37.91345694 96.31588998 -34.97296188 94.34743209 -32.03808594 92.36938477 C-28.45193242 89.95985732 -24.85406393 87.56788307 -21.25854492 85.17236328 C-17.97523984 82.98349323 -14.69439331 80.79098069 -11.4140625 78.59765625 C-9.15131047 77.08553485 -6.88823214 75.5739027 -4.625 74.0625 C-4.03361237 73.66748291 -3.44222473 73.27246582 -2.83291626 72.86547852 C3.67847137 68.51817973 10.19634809 64.18701432 16.8125 60 C22.21864206 56.57088341 27.41864046 52.9047082 32.56176758 49.09570312 C36.78996975 46 36.78996975 46 39 46 C40.4931997 42.91405395 41.30029945 39.93164137 41.8125 36.5625 C41.97685547 35.48162109 41.97685547 35.48162109 42.14453125 34.37890625 C41.92453636 30.75790923 41.07616133 29.03119555 39 26 C35.78503404 23.44951387 32.32547939 21.36315006 28.8125 19.25 C27.83321533 18.64381836 26.85393066 18.03763672 25.8449707 17.41308594 C22.90463993 15.59531355 19.95341323 13.79641636 17 12 C14.59214531 10.52160453 12.18708326 9.03899072 9.78588867 7.54980469 C8.41485008 6.70054239 7.04014104 5.85716957 5.66137695 5.02050781 C1.11096419 2.22192837 1.11096419 2.22192837 0 0 Z " fill="#FD1C1C" transform="translate(561,480)"/>
<path d="M0 0 C3.86847204 1.16054161 5.52888012 2.896331 8.125 5.9375 C12.15103964 13.98957928 7.26251855 25.9351491 5.25 34.19140625 C4.84234133 35.89530221 4.43553933 37.59940333 4.02954102 39.30369568 C2.95664312 43.79641653 1.87135418 48.28605672 0.78363037 52.77520752 C-0.29168445 57.22384801 -1.3540299 61.67558119 -2.41796875 66.12695312 C-4.28389482 73.92398815 -6.16793242 81.71647448 -8.0664978 89.50562477 C-9.25045142 94.36340708 -10.42543305 99.223209 -11.59184265 104.08523273 C-12.30361983 107.04353025 -13.02363665 109.99977516 -13.74606323 112.9554882 C-14.0763116 114.31325164 -14.40335523 115.67179948 -14.72683716 117.03119087 C-17.65268499 129.30848418 -20.80049999 138.29231686 -31.890625 145.19140625 C-41.07221604 150.08945974 -48.69442312 150.08591873 -58.875 148.9375 C-58.875 148.6075 -58.875 148.2775 -58.875 147.9375 C-57.16957031 147.84275391 -57.16957031 147.84275391 -55.4296875 147.74609375 C-44.128922 146.926521 -33.71524477 145.16240894 -25.0078125 137.23828125 C-19.46984717 130.20932526 -18.12513419 120.07605598 -16.375 111.5625 C-14.97740963 104.81799936 -13.43363667 98.17054503 -11.58007812 91.53613281 C-10.54423071 87.71841818 -9.70246218 83.86726047 -8.875 80 C-7.77672813 74.95964201 -6.65412159 69.93580667 -5.375 64.9375 C-4.12398025 60.04161732 -3.01777603 55.12308259 -1.9375 50.1875 C0.06990786 41.03147898 2.26643147 31.92670671 4.67553711 22.8671875 C6.20963744 16.99639568 7.4228728 11.31196929 5.1875 5.5 C1.90337769 3.01202855 -1.8658589 2.57627301 -5.875 1.9375 C-2.875 -0.0625 -2.875 -0.0625 0 0 Z " fill="#FA1D1E" transform="translate(770.875,611.0625)"/>
<path d="M0 0 C11.63176609 9.89327409 18.38650921 22.9040149 19.81640625 38.15625 C20.38902792 56.48014339 11.52982254 69.4889672 0.53515625 83.15625 C-0.45484375 82.66125 -0.45484375 82.66125 -1.46484375 82.15625 C-0.95099121 81.45447632 -0.95099121 81.45447632 -0.42675781 80.73852539 C1.15251983 78.57141736 2.71882045 76.39522824 4.28515625 74.21875 C4.82398438 73.48333984 5.3628125 72.74792969 5.91796875 71.99023438 C12.94037987 62.18455056 15.71873173 53.91686049 15.78515625 41.96875 C15.80578125 41.06060547 15.82640625 40.15246094 15.84765625 39.21679688 C15.88345251 32.96587444 14.90512348 27.93092908 12.53515625 22.15625 C12.10976563 21.104375 11.684375 20.0525 11.24609375 18.96875 C5.35923995 6.57537359 -3.77135834 -1.60472367 -16.57421875 -6.67993164 C-23.84588957 -9.16655148 -30.95760954 -9.38824775 -38.58984375 -9.53125 C-40.45382812 -9.58249023 -40.45382812 -9.58249023 -42.35546875 -9.63476562 C-45.39183672 -9.71651399 -48.42794243 -9.78590122 -51.46484375 -9.84375 C-39.66537135 -21.6432224 -10.40245063 -8.0226094 0 0 Z " fill="#FA1E1F" transform="translate(764.46484375,274.84375)"/>
<path d="M0 0 C0.33 0 0.66 0 1 0 C1.00238835 0.67291832 1.00477671 1.34583664 1.00723743 2.03914642 C1.06643919 18.43203715 1.14202225 34.82476284 1.23571491 51.21749115 C1.28063172 59.14498055 1.32005581 67.07242545 1.34643555 75 C1.36944904 81.91173183 1.40288432 88.82332231 1.44870156 95.73494196 C1.47258879 99.39274836 1.49134695 103.05041517 1.49761391 106.70829773 C1.50481509 110.79727018 1.53528886 114.8857584 1.56762695 118.97460938 C1.56619186 120.18014465 1.56475677 121.38567993 1.5632782 122.62774658 C1.65486303 130.82094783 3.07591768 136.75554033 7 144 C3.12392411 142.3477739 1.5591443 140.39580303 -0.21861839 136.51556206 C-1.80217247 131.4175043 -1.52583941 126.19033102 -1.4699707 120.89868164 C-1.4721611 119.60189484 -1.4743515 118.30510803 -1.47660828 116.96902466 C-1.48199869 113.4342118 -1.46269954 109.89992879 -1.43850732 106.36521077 C-1.41713576 102.6621464 -1.41780332 98.95908242 -1.41581726 95.25596619 C-1.40938428 89.04644705 -1.38818404 82.83712598 -1.35668945 76.62768555 C-1.31627383 68.6487022 -1.29898138 60.66984727 -1.28938007 52.69077396 C-1.28109356 45.83169211 -1.2638607 38.97263759 -1.24434257 32.11357951 C-1.23827113 29.90647604 -1.23313152 27.69937152 -1.2279911 25.4922657 C-1.21760932 21.39331693 -1.19797066 17.29446489 -1.17700195 13.19555664 C-1.17431305 11.96807205 -1.17162415 10.74058746 -1.16885376 9.47590637 C-1.16169846 8.3670105 -1.15454315 7.25811462 -1.14717102 6.11561584 C-1.14289754 5.14614045 -1.13862406 4.17666506 -1.13422108 3.17781162 C-1 1 -1 1 0 0 Z " fill="#FD1316" transform="translate(475,450)"/>
<path d="M0 0 C0.99 0.495 0.99 0.495 2 1 C1.20078125 2.0415625 0.4015625 3.083125 -0.421875 4.15625 C-5.96518911 11.38869561 -11.48891795 18.63335512 -16.9375 25.9375 C-21.8703223 32.54532536 -26.91537583 39.06051166 -31.9909668 45.55908203 C-36.01484623 50.71640921 -39.96623169 55.91884032 -43.875 61.1640625 C-46.55057028 64.73476842 -49.27105007 68.26976305 -51.99584961 71.80297852 C-55.44578021 76.27691214 -58.88129047 80.7616955 -62.3125 85.25 C-62.85277832 85.95543945 -63.39305664 86.66087891 -63.94970703 87.38769531 C-66.8517538 91.17892715 -69.74106922 94.97907321 -72.61328125 98.79296875 C-73.20133545 99.5705957 -73.78938965 100.34822266 -74.39526367 101.14941406 C-75.52556393 102.64456918 -76.65219493 104.14250716 -77.7746582 105.64355469 C-78.28472412 106.31676758 -78.79479004 106.98998047 -79.3203125 107.68359375 C-79.98957764 108.57389282 -79.98957764 108.57389282 -80.67236328 109.48217773 C-82 111 -82 111 -85 113 C-83.55537124 108.76654246 -81.45581397 105.74777149 -78.6875 102.25 C-77.78465985 101.09934765 -76.88234295 99.94828461 -75.98046875 98.796875 C-75.25802979 97.87938477 -75.25802979 97.87938477 -74.52099609 96.94335938 C-71.81553897 93.48662764 -69.16118547 89.99084917 -66.5 86.5 C-62.7384946 81.57608494 -58.97004349 76.65777071 -55.1875 71.75 C-50.77131501 66.01544331 -46.38420897 60.25903034 -42 54.5 C-36.84697437 47.73106376 -31.68153041 40.97250668 -26.48828125 34.234375 C-23.48185568 30.33082122 -20.49159841 26.41492056 -17.5 22.5 C-13.42075766 17.16352688 -9.34049523 11.82785502 -5.25 6.5 C-4.45078125 5.4584375 -3.6515625 4.416875 -2.828125 3.34375 C-1 1 -1 1 0 0 Z " fill="#FC1C1C" transform="translate(453,408)"/>
<path d="M0 0 C0.99 0.495 0.99 0.495 2 1 C1.43454468 1.72364746 1.43454468 1.72364746 0.85766602 2.46191406 C-5.79066448 10.97550154 -12.41832954 19.49705292 -18.87109375 28.16015625 C-21.15818976 31.21101643 -23.48103565 34.2330531 -25.8125 37.25 C-29.52131642 42.0523214 -33.17944882 46.89013503 -36.8125 51.75 C-41.54385732 58.07880995 -46.32846571 64.36461441 -51.13720703 70.63476562 C-54.85164588 75.4836472 -58.52975031 80.35824666 -62.1875 85.25 C-65.98654526 90.32269552 -69.7873812 95.39389313 -73.625 100.4375 C-74.42164063 101.48808594 -75.21828125 102.53867187 -76.0390625 103.62109375 C-78 106 -78 106 -80 107 C-78.47220483 102.36393189 -75.82078138 98.81865888 -72.875 95 C-72.3500293 94.30994873 -71.82505859 93.61989746 -71.28417969 92.90893555 C-70.13626917 91.40142857 -68.98576509 89.89589385 -67.83300781 88.39208984 C-65.9532007 85.93892655 -64.08117621 83.47999558 -62.2109375 81.01953125 C-57.45442451 74.76454498 -52.68595549 68.51870248 -47.91796875 62.27246094 C-40.62893684 52.72190736 -33.35482986 43.16204839 -26.15966797 33.54052734 C-21.90847012 27.86206883 -17.59159819 22.23685902 -13.25292969 16.625 C-11.90627219 14.87843875 -10.56587587 13.12719842 -9.2265625 11.375 C-8.77039551 10.77905029 -8.31422852 10.18310059 -7.84423828 9.5690918 C-6.96913681 8.42554747 -6.09505938 7.28121853 -5.22216797 6.13598633 C-3.56387151 3.97217802 -1.93031062 1.93031062 0 0 Z " fill="#FC1B1C" transform="translate(363,526)"/>
<path d="M0 0 C0.33 0 0.66 0 1 0 C0.97905273 0.71953857 0.95810547 1.43907715 0.93652344 2.18041992 C0.46455371 20.83965331 0.64926969 34.46742168 12 50 C12.90878906 51.25103516 12.90878906 51.25103516 13.8359375 52.52734375 C23.15391031 63.17405276 36.39305756 68.0339779 50 70 C50 70.66 50 71.32 50 72 C34.52832913 71.32877784 21.61585476 64.56737377 11 53.3828125 C7.76479782 49.52837241 5.27734214 45.47807645 3 41 C2.60941406 40.24332031 2.21882812 39.48664062 1.81640625 38.70703125 C-3.61429601 26.83109993 -3.92649869 13.55562343 -1 1 C-0.67 0.67 -0.34 0.34 0 0 Z " fill="#FB1A1B" transform="translate(246,688)"/>
<path d="M0 0 C6.06366654 3.05337055 11.84562076 6.40984402 17.58544922 10.03173828 C19.42649058 11.18294705 21.2676396 12.33398365 23.10888672 13.48486328 C24.04313477 14.07074219 24.97738281 14.65662109 25.93994141 15.26025391 C29.62778638 17.56626934 33.33011895 19.84838882 37.03271484 22.13061523 C46.01060802 27.66649156 54.93121243 33.28089435 63.77294922 39.03173828 C60.77294922 40.03173828 60.77294922 40.03173828 58.04248047 38.68798828 C56.88350835 37.97997607 55.73175987 37.2600717 54.58544922 36.53173828 C53.93962891 36.13301514 53.29380859 35.73429199 52.62841797 35.32348633 C50.33626918 33.90384482 48.05462512 32.46814771 45.77294922 31.03173828 C43.93346087 29.88143017 42.09359764 28.73172139 40.25341797 27.58251953 C37.23697064 25.69708387 34.220607 23.81151451 31.2043457 21.92578125 C29.11972735 20.62262894 27.03484507 19.31989873 24.94970703 18.01757812 C22.81232241 16.68146634 20.67627656 15.34321079 18.54150391 14.00292969 C15.41632788 12.0443531 12.2832015 10.09913292 9.14794922 8.15673828 C7.71805664 7.25532104 7.71805664 7.25532104 6.25927734 6.33569336 C0.37198148 2.70911487 -3.79779253 0.44048686 -10.85205078 1.65673828 C-14.63593979 3.19832269 -15.901466 4.75869304 -18.22705078 8.03173828 C-18.88705078 8.03173828 -19.54705078 8.03173828 -20.22705078 8.03173828 C-18.86936874 3.14408295 -16.55670657 1.5058273 -12.22705078 -0.96826172 C-7.75884362 -2.4576641 -4.23718 -1.84221178 0 0 Z " fill="#FD1D1D" transform="translate(496.22705078125,438.96826171875)"/>
<path d="M0 0 C0.7560553 -0.0033284 1.5121106 -0.0066568 2.29107666 -0.01008606 C3.87422076 -0.01510922 5.45737528 -0.01749583 7.04052734 -0.01733398 C9.46078634 -0.01953823 11.88060154 -0.03779035 14.30078125 -0.05664062 C15.84635262 -0.05957201 17.39192614 -0.06155851 18.9375 -0.0625 C20.01726105 -0.07327827 20.01726105 -0.07327827 21.11883545 -0.08427429 C24.81277503 -0.06742751 27.56481647 0.12584246 30.703125 2.16796875 C29.703125 3.16796875 29.703125 3.16796875 27.00132751 3.28822327 C25.79553543 3.28600266 24.58974335 3.28378204 23.34741211 3.28149414 C22.68402328 3.28164017 22.02063446 3.28178619 21.33714294 3.28193665 C19.13488544 3.28123756 16.93271155 3.2734454 14.73046875 3.265625 C13.20732164 3.26376081 11.68417393 3.26233691 10.161026 3.26133728 C6.14474849 3.25751221 2.12850692 3.24768203 -1.88775635 3.2366333 C-5.98310866 3.22641894 -10.07846676 3.22183961 -14.17382812 3.21679688 C-22.21486028 3.20605975 -30.25586317 3.18898347 -38.296875 3.16796875 C-38.296875 2.83796875 -38.296875 2.50796875 -38.296875 2.16796875 C-37.36004883 2.13038452 -37.36004883 2.13038452 -36.40429688 2.09204102 C-33.53500377 1.97496494 -30.66595075 1.85275124 -27.796875 1.73046875 C-26.81460938 1.69115234 -25.83234375 1.65183594 -24.8203125 1.61132812 C-23.85351562 1.56943359 -22.88671875 1.52753906 -21.890625 1.484375 C-20.57094727 1.42938843 -20.57094727 1.42938843 -19.22460938 1.37329102 C-16.964673 1.21480148 -14.71155155 0.9572254 -12.46582031 0.65869141 C-8.29948021 0.11913685 -4.19731863 0.00656258 0 0 Z " fill="#FC2223" transform="translate(680.296875,261.83203125)"/>
<path d="M0 0 C0.66 0.33 1.32 0.66 2 1 C0.78101562 2.6253125 -0.43801293 4.25059189 -1.65722656 5.87573242 C-2.73282337 7.31024619 -3.80767508 8.74531889 -4.88183594 10.1809082 C-7.6335726 13.85641933 -10.39483276 17.5234338 -13.1875 21.16796875 C-20.87177808 31.22860224 -28.16255007 41.22250033 -33 53 C-33.93698054 50.49168564 -34.07483072 49.24309873 -33.27734375 46.65234375 C-28.56699744 37.10805603 -22.2616104 28.86569544 -15.83691406 20.42041016 C-14.04146377 18.05463474 -12.26377928 15.67664699 -10.4921875 13.29296875 C-2.34424205 2.34424205 -2.34424205 2.34424205 0 0 Z " fill="#FC1A1A" transform="translate(281,634)"/>
<path d="M0 0 C0.33 0.66 0.66 1.32 1 2 C0.57332031 2.58523438 0.14664063 3.17046875 -0.29296875 3.7734375 C-6.8882173 12.83000561 -13.44402095 21.914986 -20 31 C-18.68 31 -17.36 31 -16 31 C-16 31.99 -16 32.98 -16 34 C-17.65 34 -19.3 34 -21 34 C-21.66 32.68 -22.32 31.36 -23 30 C-22.56171875 29.47535156 -22.1234375 28.95070313 -21.671875 28.41015625 C-16.49649264 22.08819528 -11.76972496 15.52247374 -7.12597656 8.80297852 C-6.63452148 8.09584717 -6.14306641 7.38871582 -5.63671875 6.66015625 C-5.20061279 6.02730713 -4.76450684 5.39445801 -4.31518555 4.74243164 C-2.99810078 2.99748381 -1.58156152 1.50579463 0 0 Z " fill="#FD1C1C" transform="translate(600,579)"/>
<path d="M0 0 C0.33 0 0.66 0 1 0 C0.835 1.299375 0.67 2.59875 0.5 3.9375 C-0.65932477 12.63340539 -0.65932477 12.63340539 1.375 20.9375 C5.2123655 23.9525729 9.23791008 24.39110682 14 25 C10.67514348 27.21657101 8.97726307 27.35362597 5.07421875 26.71875 C1.07840337 25.33413601 -1.15025256 22.73337305 -3 19 C-4.33701689 12.2928161 -2.51714855 6.20297321 0 0 Z " fill="#F91C1D" transform="translate(253,381)"/>
<path d="M0 0 C0.33 0 0.66 0 1 0 C0.37929687 6.81378606 -0.83519546 13.29003832 -2.4375 19.9375 C-2.65470703 20.88173828 -2.87191406 21.82597656 -3.09570312 22.79882812 C-3.31033203 23.69923828 -3.52496094 24.59964844 -3.74609375 25.52734375 C-3.93872803 26.33937256 -4.1313623 27.15140137 -4.32983398 27.98803711 C-5 30 -5 30 -7 32 C-6.47505866 24.7849947 -5.2331971 17.95447227 -3.5 10.9375 C-3.27441406 9.98939453 -3.04882812 9.04128906 -2.81640625 8.06445312 C-1.13822286 1.13822286 -1.13822286 1.13822286 0 0 Z " fill="#FC1E1F" transform="translate(263,340)"/>
<path d="M0 0 C0.66 0 1.32 0 2 0 C1.63379732 8.11138929 -0.41540233 15.33035667 -3 23 C-3.33 23 -3.66 23 -4 23 C-4.23136637 17.4978184 -3.4350346 12.86146222 -2 7.5625 C-1.80921875 6.83095703 -1.6184375 6.09941406 -1.421875 5.34570312 C-0.95549597 3.56180334 -0.47881722 1.78060155 0 0 Z " fill="#FA2021" transform="translate(274,292)"/>
<path d="M0 0 C0.66 0.33 1.32 0.66 2 1 C2.02694851 2.95825873 2.04637218 4.91662226 2.0625 6.875 C2.07410156 7.96554687 2.08570313 9.05609375 2.09765625 10.1796875 C2 13 2 13 1 15 C0.34 15 -0.32 15 -1 15 C-1.02685412 12.68756208 -1.04632841 10.3750373 -1.0625 8.0625 C-1.07410156 6.77472656 -1.08570313 5.48695313 -1.09765625 4.16015625 C-1 1 -1 1 0 0 Z " fill="#FB2526" transform="translate(782,309)"/>
<path d="M0 0 C0.66 0 1.32 0 2 0 C0.46906512 4.67199091 -2.10757395 8.02170005 -5.125 11.8125 C-5.82689453 12.7087207 -5.82689453 12.7087207 -6.54296875 13.62304688 C-7.69005565 15.08616792 -8.84431234 16.54366297 -10 18 C-10.66 17.67 -11.32 17.34 -12 17 C-11.07767578 15.78763672 -11.07767578 15.78763672 -10.13671875 14.55078125 C-9.32018287 13.47145222 -8.50378389 12.39201962 -7.6875 11.3125 C-7.28337891 10.78205078 -6.87925781 10.25160156 -6.46289062 9.70507812 C-4.5974427 7.23298046 -2.87954654 4.79096953 -1.33203125 2.10546875 C-0.89246094 1.41066406 -0.45289063 0.71585937 0 0 Z " fill="#FA1918" transform="translate(761,359)"/>
<path d="M0 0 C0.66 0 1.32 0 2 0 C1.25 7.75 1.25 7.75 -1 10 C-0.67 6.7 -0.34 3.4 0 0 Z " fill="#FD1D1D" transform="translate(265,329)"/>
<path d="M0 0 C2.9375 0.75 2.9375 0.75 4.9375 2.75 C1.3075 2.42 -2.3225 2.09 -6.0625 1.75 C-3.0625 -0.25 -3.0625 -0.25 0 0 Z " fill="#F72425" transform="translate(771.0625,611.25)"/>
<path d="" fill="#EC3A3E" transform="translate(0,0)"/>
<path d="M0 0 C2 1 2 1 2 1 Z " fill="#F94142" transform="translate(520,576)"/>
<path d="M0 0 C2 1 2 1 2 1 Z " fill="#EB3F3F" transform="translate(296,264)"/>
<path d="" fill="#553333" transform="translate(0,0)"/>
<path d="" fill="#F33E40" transform="translate(0,0)"/>
<path d="" fill="#EF3F3C" transform="translate(0,0)"/>
<path d="" fill="#F23C40" transform="translate(0,0)"/>
<path d="" fill="#EA3F41" transform="translate(0,0)"/>
<path d="" fill="#E93F41" transform="translate(0,0)"/>
<path d="" fill="#ED3D41" transform="translate(0,0)"/>
<path d="" fill="#ED4346" transform="translate(0,0)"/>
<path d="" fill="#F53F40" transform="translate(0,0)"/>
<path d="" fill="#F93B3D" transform="translate(0,0)"/>
<path d="" fill="#F93F3D" transform="translate(0,0)"/>
<path d="" fill="#F93E3A" transform="translate(0,0)"/>
<path d="" fill="#FD3D3D" transform="translate(0,0)"/>
<path d="" fill="#F63F40" transform="translate(0,0)"/>
<path d="" fill="#FB3E41" transform="translate(0,0)"/>
<path d="" fill="#F84040" transform="translate(0,0)"/>
<path d="" fill="#F83F3F" transform="translate(0,0)"/>
<path d="" fill="#F64140" transform="translate(0,0)"/>
<path d="" fill="#F83F42" transform="translate(0,0)"/>
<path d="" fill="#FA3F41" transform="translate(0,0)"/>
<path d="" fill="#FC3C3F" transform="translate(0,0)"/>
<path d="" fill="#EA4142" transform="translate(0,0)"/>
<path d="" fill="#EC4142" transform="translate(0,0)"/>
<path d="" fill="#E94342" transform="translate(0,0)"/>
</svg>
